<mxfile host="app.diagrams.net" modified="2023-11-09T08:57:08.064Z" agent="Mozilla/5.0 (Windows NT 10.0; Win64; x64) AppleWebKit/537.36 (KHTML, like Gecko) Chrome/119.0.0.0 Safari/537.36" etag="n_QcGNXHW0zqF6e6gkyp" version="22.0.8" type="device">
  <diagram id="C5RBs43oDa-KdzZeNtuy" name="Page-1">
    <mxGraphModel dx="2514" dy="2131" grid="1" gridSize="10" guides="1" tooltips="1" connect="1" arrows="1" fold="1" page="1" pageScale="1" pageWidth="827" pageHeight="1169" math="0" shadow="0">
      <root>
        <mxCell id="WIyWlLk6GJQsqaUBKTNV-0" />
        <mxCell id="WIyWlLk6GJQsqaUBKTNV-1" parent="WIyWlLk6GJQsqaUBKTNV-0" />
        <mxCell id="ilgVAeaoaIIIPj3hmc9z-31" value="Production Flowchart" style="text;html=1;align=center;verticalAlign=middle;resizable=0;points=[];autosize=1;strokeColor=none;fillColor=none;fontSize=20;fontStyle=1" vertex="1" parent="WIyWlLk6GJQsqaUBKTNV-1">
          <mxGeometry x="-190" y="50" width="230" height="40" as="geometry" />
        </mxCell>
        <mxCell id="ilgVAeaoaIIIPj3hmc9z-32" value="" style="shape=ext;double=1;rounded=0;whiteSpace=wrap;html=1;fontSize=16;fillColor=none;strokeWidth=2;" vertex="1" parent="WIyWlLk6GJQsqaUBKTNV-1">
          <mxGeometry x="-230" width="760" height="1210" as="geometry" />
        </mxCell>
        <mxCell id="ilgVAeaoaIIIPj3hmc9z-74" style="edgeStyle=none;curved=1;rounded=0;orthogonalLoop=1;jettySize=auto;html=1;exitX=0.5;exitY=1;exitDx=0;exitDy=0;entryX=0.5;entryY=0;entryDx=0;entryDy=0;fontSize=12;startSize=8;endSize=8;" edge="1" parent="WIyWlLk6GJQsqaUBKTNV-1" source="ilgVAeaoaIIIPj3hmc9z-75" target="ilgVAeaoaIIIPj3hmc9z-77">
          <mxGeometry relative="1" as="geometry" />
        </mxCell>
        <mxCell id="ilgVAeaoaIIIPj3hmc9z-75" value="Is Quantity &amp;gt;=0" style="rhombus;whiteSpace=wrap;html=1;shadow=0;fontFamily=Helvetica;fontSize=12;align=center;strokeWidth=1;spacing=6;spacingTop=-4;" vertex="1" parent="WIyWlLk6GJQsqaUBKTNV-1">
          <mxGeometry x="60" y="100" width="170" height="80" as="geometry" />
        </mxCell>
        <mxCell id="ilgVAeaoaIIIPj3hmc9z-76" style="edgeStyle=none;curved=1;rounded=0;orthogonalLoop=1;jettySize=auto;html=1;exitX=0.5;exitY=1;exitDx=0;exitDy=0;entryX=0.5;entryY=0;entryDx=0;entryDy=0;fontSize=12;startSize=8;endSize=8;" edge="1" parent="WIyWlLk6GJQsqaUBKTNV-1" source="ilgVAeaoaIIIPj3hmc9z-77" target="ilgVAeaoaIIIPj3hmc9z-79">
          <mxGeometry relative="1" as="geometry" />
        </mxCell>
        <mxCell id="ilgVAeaoaIIIPj3hmc9z-77" value="Dispense Sub-Component" style="rounded=1;whiteSpace=wrap;html=1;fontSize=12;glass=0;strokeWidth=1;shadow=0;" vertex="1" parent="WIyWlLk6GJQsqaUBKTNV-1">
          <mxGeometry x="85" y="220" width="120" height="40" as="geometry" />
        </mxCell>
        <mxCell id="ilgVAeaoaIIIPj3hmc9z-78" value="" style="edgeStyle=none;curved=1;rounded=0;orthogonalLoop=1;jettySize=auto;html=1;fontSize=12;startSize=8;endSize=8;" edge="1" parent="WIyWlLk6GJQsqaUBKTNV-1" source="ilgVAeaoaIIIPj3hmc9z-79" target="ilgVAeaoaIIIPj3hmc9z-84">
          <mxGeometry relative="1" as="geometry" />
        </mxCell>
        <mxCell id="ilgVAeaoaIIIPj3hmc9z-79" value="Fault Detection" style="rounded=1;whiteSpace=wrap;html=1;fontSize=12;glass=0;strokeWidth=1;shadow=0;" vertex="1" parent="WIyWlLk6GJQsqaUBKTNV-1">
          <mxGeometry x="85" y="309" width="120" height="40" as="geometry" />
        </mxCell>
        <mxCell id="ilgVAeaoaIIIPj3hmc9z-80" value="" style="edgeStyle=none;curved=1;rounded=0;orthogonalLoop=1;jettySize=auto;html=1;fontSize=12;startSize=8;endSize=8;" edge="1" parent="WIyWlLk6GJQsqaUBKTNV-1" source="ilgVAeaoaIIIPj3hmc9z-84" target="ilgVAeaoaIIIPj3hmc9z-85">
          <mxGeometry relative="1" as="geometry" />
        </mxCell>
        <mxCell id="ilgVAeaoaIIIPj3hmc9z-81" value="Yes" style="edgeLabel;html=1;align=center;verticalAlign=middle;resizable=0;points=[];fontSize=16;" vertex="1" connectable="0" parent="ilgVAeaoaIIIPj3hmc9z-80">
          <mxGeometry x="-0.2364" y="-2" relative="1" as="geometry">
            <mxPoint y="8" as="offset" />
          </mxGeometry>
        </mxCell>
        <mxCell id="ilgVAeaoaIIIPj3hmc9z-82" style="edgeStyle=none;curved=1;rounded=0;orthogonalLoop=1;jettySize=auto;html=1;exitX=0.5;exitY=1;exitDx=0;exitDy=0;entryX=0.5;entryY=0;entryDx=0;entryDy=0;fontSize=12;startSize=8;endSize=8;" edge="1" parent="WIyWlLk6GJQsqaUBKTNV-1" source="ilgVAeaoaIIIPj3hmc9z-84" target="ilgVAeaoaIIIPj3hmc9z-87">
          <mxGeometry relative="1" as="geometry" />
        </mxCell>
        <mxCell id="ilgVAeaoaIIIPj3hmc9z-83" value="No" style="edgeLabel;html=1;align=center;verticalAlign=middle;resizable=0;points=[];fontSize=16;" vertex="1" connectable="0" parent="ilgVAeaoaIIIPj3hmc9z-82">
          <mxGeometry x="-0.2" y="-1" relative="1" as="geometry">
            <mxPoint x="21" as="offset" />
          </mxGeometry>
        </mxCell>
        <mxCell id="ilgVAeaoaIIIPj3hmc9z-84" value="Is Sub-Component &lt;br&gt;defective?" style="rhombus;whiteSpace=wrap;html=1;shadow=0;fontFamily=Helvetica;fontSize=12;align=center;strokeWidth=1;spacing=6;spacingTop=-4;" vertex="1" parent="WIyWlLk6GJQsqaUBKTNV-1">
          <mxGeometry x="60" y="380" width="170" height="80" as="geometry" />
        </mxCell>
        <mxCell id="ilgVAeaoaIIIPj3hmc9z-85" value="Move to bin" style="rounded=1;whiteSpace=wrap;html=1;fontSize=12;glass=0;strokeWidth=1;shadow=0;" vertex="1" parent="WIyWlLk6GJQsqaUBKTNV-1">
          <mxGeometry x="285" y="400" width="120" height="40" as="geometry" />
        </mxCell>
        <mxCell id="ilgVAeaoaIIIPj3hmc9z-86" value="" style="edgeStyle=none;curved=1;rounded=0;orthogonalLoop=1;jettySize=auto;html=1;fontSize=12;startSize=8;endSize=8;" edge="1" parent="WIyWlLk6GJQsqaUBKTNV-1" source="ilgVAeaoaIIIPj3hmc9z-87" target="ilgVAeaoaIIIPj3hmc9z-92">
          <mxGeometry relative="1" as="geometry" />
        </mxCell>
        <mxCell id="ilgVAeaoaIIIPj3hmc9z-87" value="Pick and Place to Pinning Station" style="rounded=1;whiteSpace=wrap;html=1;fontSize=12;glass=0;strokeWidth=1;shadow=0;" vertex="1" parent="WIyWlLk6GJQsqaUBKTNV-1">
          <mxGeometry x="85" y="490" width="120" height="40" as="geometry" />
        </mxCell>
        <mxCell id="ilgVAeaoaIIIPj3hmc9z-88" style="edgeStyle=none;curved=1;rounded=0;orthogonalLoop=1;jettySize=auto;html=1;exitX=0.5;exitY=1;exitDx=0;exitDy=0;entryX=0.5;entryY=0;entryDx=0;entryDy=0;fontSize=12;startSize=8;endSize=8;" edge="1" parent="WIyWlLk6GJQsqaUBKTNV-1" source="ilgVAeaoaIIIPj3hmc9z-92" target="ilgVAeaoaIIIPj3hmc9z-94">
          <mxGeometry relative="1" as="geometry" />
        </mxCell>
        <mxCell id="ilgVAeaoaIIIPj3hmc9z-89" value="Yes" style="edgeLabel;html=1;align=center;verticalAlign=middle;resizable=0;points=[];fontSize=16;" vertex="1" connectable="0" parent="ilgVAeaoaIIIPj3hmc9z-88">
          <mxGeometry x="0.0667" y="4" relative="1" as="geometry">
            <mxPoint x="16" as="offset" />
          </mxGeometry>
        </mxCell>
        <mxCell id="ilgVAeaoaIIIPj3hmc9z-90" style="edgeStyle=none;rounded=0;orthogonalLoop=1;jettySize=auto;html=1;exitX=1;exitY=0.5;exitDx=0;exitDy=0;entryX=1;entryY=0.5;entryDx=0;entryDy=0;fontSize=12;startSize=8;endSize=8;" edge="1" parent="WIyWlLk6GJQsqaUBKTNV-1" source="ilgVAeaoaIIIPj3hmc9z-92" target="ilgVAeaoaIIIPj3hmc9z-96">
          <mxGeometry relative="1" as="geometry">
            <Array as="points">
              <mxPoint x="295" y="600" />
              <mxPoint x="295" y="770" />
            </Array>
          </mxGeometry>
        </mxCell>
        <mxCell id="ilgVAeaoaIIIPj3hmc9z-91" value="No" style="edgeLabel;html=1;align=center;verticalAlign=middle;resizable=0;points=[];fontSize=16;" vertex="1" connectable="0" parent="ilgVAeaoaIIIPj3hmc9z-90">
          <mxGeometry x="-0.2369" y="-4" relative="1" as="geometry">
            <mxPoint x="-13" y="21" as="offset" />
          </mxGeometry>
        </mxCell>
        <mxCell id="ilgVAeaoaIIIPj3hmc9z-92" value="Is Sub-Component &lt;br&gt;of type Aluminium?" style="rhombus;whiteSpace=wrap;html=1;shadow=0;fontFamily=Helvetica;fontSize=12;align=center;strokeWidth=1;spacing=6;spacingTop=-4;" vertex="1" parent="WIyWlLk6GJQsqaUBKTNV-1">
          <mxGeometry x="60" y="560" width="170" height="80" as="geometry" />
        </mxCell>
        <mxCell id="ilgVAeaoaIIIPj3hmc9z-93" style="edgeStyle=none;curved=1;rounded=0;orthogonalLoop=1;jettySize=auto;html=1;exitX=0.5;exitY=1;exitDx=0;exitDy=0;entryX=0.5;entryY=0;entryDx=0;entryDy=0;fontSize=12;startSize=8;endSize=8;" edge="1" parent="WIyWlLk6GJQsqaUBKTNV-1" source="ilgVAeaoaIIIPj3hmc9z-94" target="ilgVAeaoaIIIPj3hmc9z-96">
          <mxGeometry relative="1" as="geometry" />
        </mxCell>
        <mxCell id="ilgVAeaoaIIIPj3hmc9z-94" value="Pinning" style="rounded=1;whiteSpace=wrap;html=1;fontSize=12;glass=0;strokeWidth=1;shadow=0;" vertex="1" parent="WIyWlLk6GJQsqaUBKTNV-1">
          <mxGeometry x="85" y="670" width="120" height="40" as="geometry" />
        </mxCell>
        <mxCell id="ilgVAeaoaIIIPj3hmc9z-95" value="" style="edgeStyle=none;curved=1;rounded=0;orthogonalLoop=1;jettySize=auto;html=1;fontSize=12;startSize=8;endSize=8;" edge="1" parent="WIyWlLk6GJQsqaUBKTNV-1" source="ilgVAeaoaIIIPj3hmc9z-96" target="ilgVAeaoaIIIPj3hmc9z-101">
          <mxGeometry relative="1" as="geometry" />
        </mxCell>
        <mxCell id="ilgVAeaoaIIIPj3hmc9z-96" value="Pick an Place to Assembly Station" style="rounded=1;whiteSpace=wrap;html=1;fontSize=12;glass=0;strokeWidth=1;shadow=0;" vertex="1" parent="WIyWlLk6GJQsqaUBKTNV-1">
          <mxGeometry x="85" y="750" width="120" height="40" as="geometry" />
        </mxCell>
        <mxCell id="ilgVAeaoaIIIPj3hmc9z-97" style="edgeStyle=none;curved=1;rounded=0;orthogonalLoop=1;jettySize=auto;html=1;exitX=0.5;exitY=1;exitDx=0;exitDy=0;entryX=0.5;entryY=0;entryDx=0;entryDy=0;fontSize=12;startSize=8;endSize=8;" edge="1" parent="WIyWlLk6GJQsqaUBKTNV-1" source="ilgVAeaoaIIIPj3hmc9z-101" target="ilgVAeaoaIIIPj3hmc9z-103">
          <mxGeometry relative="1" as="geometry" />
        </mxCell>
        <mxCell id="ilgVAeaoaIIIPj3hmc9z-98" value="Yes" style="edgeLabel;html=1;align=center;verticalAlign=middle;resizable=0;points=[];fontSize=16;" vertex="1" connectable="0" parent="ilgVAeaoaIIIPj3hmc9z-97">
          <mxGeometry x="-0.0667" y="-1" relative="1" as="geometry">
            <mxPoint x="21" y="-4" as="offset" />
          </mxGeometry>
        </mxCell>
        <mxCell id="ilgVAeaoaIIIPj3hmc9z-99" value="" style="edgeStyle=none;rounded=0;orthogonalLoop=1;jettySize=auto;html=1;fontSize=12;startSize=8;endSize=8;exitX=1;exitY=0.5;exitDx=0;exitDy=0;" edge="1" parent="WIyWlLk6GJQsqaUBKTNV-1" source="ilgVAeaoaIIIPj3hmc9z-101">
          <mxGeometry relative="1" as="geometry">
            <mxPoint x="235" y="810" as="sourcePoint" />
            <mxPoint x="145" y="810" as="targetPoint" />
            <Array as="points">
              <mxPoint x="230" y="810" />
            </Array>
          </mxGeometry>
        </mxCell>
        <mxCell id="ilgVAeaoaIIIPj3hmc9z-100" value="No" style="edgeLabel;html=1;align=center;verticalAlign=middle;resizable=0;points=[];fontSize=16;" vertex="1" connectable="0" parent="ilgVAeaoaIIIPj3hmc9z-99">
          <mxGeometry x="-0.607" y="-3" relative="1" as="geometry">
            <mxPoint x="22" y="-2" as="offset" />
          </mxGeometry>
        </mxCell>
        <mxCell id="ilgVAeaoaIIIPj3hmc9z-101" value="Has the second &lt;br&gt;component&lt;br&gt;arrived?" style="rhombus;whiteSpace=wrap;html=1;shadow=0;fontFamily=Helvetica;fontSize=12;align=center;strokeWidth=1;spacing=6;spacingTop=-4;" vertex="1" parent="WIyWlLk6GJQsqaUBKTNV-1">
          <mxGeometry x="60" y="830" width="170" height="80" as="geometry" />
        </mxCell>
        <mxCell id="ilgVAeaoaIIIPj3hmc9z-102" style="edgeStyle=none;curved=1;rounded=0;orthogonalLoop=1;jettySize=auto;html=1;exitX=0.5;exitY=1;exitDx=0;exitDy=0;entryX=0.5;entryY=0;entryDx=0;entryDy=0;fontSize=12;startSize=8;endSize=8;" edge="1" parent="WIyWlLk6GJQsqaUBKTNV-1" source="ilgVAeaoaIIIPj3hmc9z-103" target="ilgVAeaoaIIIPj3hmc9z-105">
          <mxGeometry relative="1" as="geometry" />
        </mxCell>
        <mxCell id="ilgVAeaoaIIIPj3hmc9z-103" value="Assembly" style="rounded=1;whiteSpace=wrap;html=1;fontSize=12;glass=0;strokeWidth=1;shadow=0;" vertex="1" parent="WIyWlLk6GJQsqaUBKTNV-1">
          <mxGeometry x="85" y="940" width="120" height="40" as="geometry" />
        </mxCell>
        <mxCell id="ilgVAeaoaIIIPj3hmc9z-104" style="edgeStyle=none;curved=1;rounded=0;orthogonalLoop=1;jettySize=auto;html=1;exitX=0.5;exitY=1;exitDx=0;exitDy=0;entryX=0.5;entryY=0;entryDx=0;entryDy=0;fontSize=12;startSize=8;endSize=8;" edge="1" parent="WIyWlLk6GJQsqaUBKTNV-1" source="ilgVAeaoaIIIPj3hmc9z-105" target="ilgVAeaoaIIIPj3hmc9z-107">
          <mxGeometry relative="1" as="geometry" />
        </mxCell>
        <mxCell id="ilgVAeaoaIIIPj3hmc9z-105" value="Pick an Place to Conveyor" style="rounded=1;whiteSpace=wrap;html=1;fontSize=12;glass=0;strokeWidth=1;shadow=0;" vertex="1" parent="WIyWlLk6GJQsqaUBKTNV-1">
          <mxGeometry x="85" y="1010" width="120" height="40" as="geometry" />
        </mxCell>
        <mxCell id="ilgVAeaoaIIIPj3hmc9z-106" style="edgeStyle=none;curved=1;rounded=0;orthogonalLoop=1;jettySize=auto;html=1;exitX=0.5;exitY=1;exitDx=0;exitDy=0;entryX=0.5;entryY=0;entryDx=0;entryDy=0;fontSize=12;startSize=8;endSize=8;" edge="1" parent="WIyWlLk6GJQsqaUBKTNV-1" source="ilgVAeaoaIIIPj3hmc9z-107" target="ilgVAeaoaIIIPj3hmc9z-108">
          <mxGeometry relative="1" as="geometry" />
        </mxCell>
        <mxCell id="ilgVAeaoaIIIPj3hmc9z-107" value="Move to ASRS" style="rounded=1;whiteSpace=wrap;html=1;fontSize=12;glass=0;strokeWidth=1;shadow=0;" vertex="1" parent="WIyWlLk6GJQsqaUBKTNV-1">
          <mxGeometry x="85" y="1080" width="120" height="40" as="geometry" />
        </mxCell>
        <mxCell id="ilgVAeaoaIIIPj3hmc9z-108" value="Start Storage" style="rounded=1;whiteSpace=wrap;html=1;fontSize=12;glass=0;strokeWidth=1;shadow=0;" vertex="1" parent="WIyWlLk6GJQsqaUBKTNV-1">
          <mxGeometry x="85" y="1150" width="120" height="40" as="geometry" />
        </mxCell>
        <mxCell id="ilgVAeaoaIIIPj3hmc9z-109" style="edgeStyle=none;rounded=0;orthogonalLoop=1;jettySize=auto;html=1;fontSize=12;startSize=8;endSize=8;entryX=1;entryY=0.5;entryDx=0;entryDy=0;" edge="1" parent="WIyWlLk6GJQsqaUBKTNV-1" target="ilgVAeaoaIIIPj3hmc9z-75">
          <mxGeometry relative="1" as="geometry">
            <mxPoint x="145" y="540" as="sourcePoint" />
            <mxPoint x="275" y="560" as="targetPoint" />
            <Array as="points">
              <mxPoint x="455" y="540" />
              <mxPoint x="455" y="140" />
            </Array>
          </mxGeometry>
        </mxCell>
        <mxCell id="ilgVAeaoaIIIPj3hmc9z-111" style="edgeStyle=none;curved=1;rounded=0;orthogonalLoop=1;jettySize=auto;html=1;exitX=0.5;exitY=1;exitDx=0;exitDy=0;exitPerimeter=0;entryX=0.5;entryY=0;entryDx=0;entryDy=0;fontSize=12;startSize=8;endSize=8;" edge="1" parent="WIyWlLk6GJQsqaUBKTNV-1" source="ilgVAeaoaIIIPj3hmc9z-110" target="ilgVAeaoaIIIPj3hmc9z-75">
          <mxGeometry relative="1" as="geometry" />
        </mxCell>
        <mxCell id="ilgVAeaoaIIIPj3hmc9z-110" value="Start Production" style="strokeWidth=2;html=1;shape=mxgraph.flowchart.terminator;whiteSpace=wrap;fontSize=16;" vertex="1" parent="WIyWlLk6GJQsqaUBKTNV-1">
          <mxGeometry x="95" y="20" width="100" height="60" as="geometry" />
        </mxCell>
      </root>
    </mxGraphModel>
  </diagram>
</mxfile>
